<mxfile host="app.diagrams.net" modified="2023-09-06T22:51:27.511Z" agent="Mozilla/5.0 (X11; Linux x86_64; rv:109.0) Gecko/20100101 Firefox/115.0" etag="906UBuWIdSZ-nXkp4ZVY" version="21.7.2" type="device">
  <diagram name="Page-1" id="PKeLN0TRE7tZz4AtW1LR">
    <mxGraphModel dx="954" dy="602" grid="1" gridSize="10" guides="1" tooltips="1" connect="1" arrows="1" fold="1" page="1" pageScale="1" pageWidth="850" pageHeight="1100" math="0" shadow="0">
      <root>
        <mxCell id="0" />
        <mxCell id="1" parent="0" />
        <mxCell id="_HqYI-Lv1e-x0129nHfc-14" value="" style="edgeStyle=orthogonalEdgeStyle;rounded=0;orthogonalLoop=1;jettySize=auto;html=1;entryX=0.5;entryY=0;entryDx=0;entryDy=0;" parent="1" source="_HqYI-Lv1e-x0129nHfc-1" target="_HqYI-Lv1e-x0129nHfc-15" edge="1">
          <mxGeometry relative="1" as="geometry" />
        </mxCell>
        <mxCell id="_HqYI-Lv1e-x0129nHfc-1" value="&lt;div&gt;Inicio&lt;/div&gt;" style="strokeWidth=2;html=1;shape=mxgraph.flowchart.terminator;whiteSpace=wrap;" parent="1" vertex="1">
          <mxGeometry x="375" y="75" width="100" height="60" as="geometry" />
        </mxCell>
        <mxCell id="_HqYI-Lv1e-x0129nHfc-21" value="" style="edgeStyle=orthogonalEdgeStyle;rounded=0;orthogonalLoop=1;jettySize=auto;html=1;" parent="1" source="_HqYI-Lv1e-x0129nHfc-12" target="_HqYI-Lv1e-x0129nHfc-19" edge="1">
          <mxGeometry relative="1" as="geometry" />
        </mxCell>
        <mxCell id="_HqYI-Lv1e-x0129nHfc-12" value="&lt;div&gt;DIGITE O PRIMEIRO&lt;/div&gt;&lt;div&gt;NUMERO&lt;br&gt;&lt;/div&gt;" style="shape=document;whiteSpace=wrap;html=1;boundedLbl=1;" parent="1" vertex="1">
          <mxGeometry x="365" y="265" width="120" height="80" as="geometry" />
        </mxCell>
        <mxCell id="_HqYI-Lv1e-x0129nHfc-17" value="" style="edgeStyle=orthogonalEdgeStyle;rounded=0;orthogonalLoop=1;jettySize=auto;html=1;" parent="1" source="_HqYI-Lv1e-x0129nHfc-15" target="_HqYI-Lv1e-x0129nHfc-12" edge="1">
          <mxGeometry relative="1" as="geometry" />
        </mxCell>
        <mxCell id="_HqYI-Lv1e-x0129nHfc-15" value="&lt;div&gt;Declare num1, num2, resultado&lt;br&gt;&lt;/div&gt;como float" style="whiteSpace=wrap;html=1;strokeWidth=2;rounded=1;arcSize=11;" parent="1" vertex="1">
          <mxGeometry x="365" y="175" width="120" height="60" as="geometry" />
        </mxCell>
        <mxCell id="_HqYI-Lv1e-x0129nHfc-27" value="" style="edgeStyle=orthogonalEdgeStyle;rounded=0;orthogonalLoop=1;jettySize=auto;html=1;" parent="1" source="_HqYI-Lv1e-x0129nHfc-19" target="_HqYI-Lv1e-x0129nHfc-23" edge="1">
          <mxGeometry relative="1" as="geometry" />
        </mxCell>
        <mxCell id="_HqYI-Lv1e-x0129nHfc-19" value="&lt;br&gt;&lt;div&gt;LEIA NUM1&lt;/div&gt;" style="html=1;strokeWidth=2;shape=manualInput;whiteSpace=wrap;rounded=1;size=26;arcSize=11;" parent="1" vertex="1">
          <mxGeometry x="375" y="385" width="100" height="90" as="geometry" />
        </mxCell>
        <mxCell id="_HqYI-Lv1e-x0129nHfc-28" value="" style="edgeStyle=orthogonalEdgeStyle;rounded=0;orthogonalLoop=1;jettySize=auto;html=1;" parent="1" source="_HqYI-Lv1e-x0129nHfc-23" target="_HqYI-Lv1e-x0129nHfc-26" edge="1">
          <mxGeometry relative="1" as="geometry" />
        </mxCell>
        <mxCell id="_HqYI-Lv1e-x0129nHfc-23" value="&lt;div&gt;DIGITE O SEGUNDO&lt;br&gt;&lt;/div&gt;&lt;div&gt;NUMERO&lt;br&gt;&lt;/div&gt;" style="shape=document;whiteSpace=wrap;html=1;boundedLbl=1;" parent="1" vertex="1">
          <mxGeometry x="365" y="535" width="120" height="80" as="geometry" />
        </mxCell>
        <mxCell id="_HqYI-Lv1e-x0129nHfc-30" value="" style="edgeStyle=orthogonalEdgeStyle;rounded=0;orthogonalLoop=1;jettySize=auto;html=1;" parent="1" source="_HqYI-Lv1e-x0129nHfc-26" target="_HqYI-Lv1e-x0129nHfc-29" edge="1">
          <mxGeometry relative="1" as="geometry" />
        </mxCell>
        <mxCell id="_HqYI-Lv1e-x0129nHfc-26" value="&lt;br&gt;&lt;div&gt;LEIA NUM2&lt;/div&gt;" style="html=1;strokeWidth=2;shape=manualInput;whiteSpace=wrap;rounded=1;size=26;arcSize=11;" parent="1" vertex="1">
          <mxGeometry x="375" y="655" width="100" height="90" as="geometry" />
        </mxCell>
        <mxCell id="_HqYI-Lv1e-x0129nHfc-32" value="" style="edgeStyle=orthogonalEdgeStyle;rounded=0;orthogonalLoop=1;jettySize=auto;html=1;" parent="1" source="_HqYI-Lv1e-x0129nHfc-29" target="_HqYI-Lv1e-x0129nHfc-31" edge="1">
          <mxGeometry relative="1" as="geometry" />
        </mxCell>
        <mxCell id="_HqYI-Lv1e-x0129nHfc-29" value="&lt;div&gt;resultado = num1 - num2;&lt;/div&gt;" style="rounded=1;whiteSpace=wrap;html=1;absoluteArcSize=1;arcSize=14;strokeWidth=2;" parent="1" vertex="1">
          <mxGeometry x="335" y="795" width="180" height="60" as="geometry" />
        </mxCell>
        <mxCell id="EqXl3d77nluJspqVkF0w-2" value="" style="edgeStyle=orthogonalEdgeStyle;rounded=0;orthogonalLoop=1;jettySize=auto;html=1;" edge="1" parent="1" source="_HqYI-Lv1e-x0129nHfc-31" target="EqXl3d77nluJspqVkF0w-1">
          <mxGeometry relative="1" as="geometry" />
        </mxCell>
        <mxCell id="_HqYI-Lv1e-x0129nHfc-31" value="&quot;O resultado da subtração de {num1} e {num2} é igual a {resultado}&quot; " style="strokeWidth=2;html=1;shape=mxgraph.flowchart.document2;whiteSpace=wrap;size=0.25;" parent="1" vertex="1">
          <mxGeometry x="290" y="895" width="270" height="130" as="geometry" />
        </mxCell>
        <mxCell id="EqXl3d77nluJspqVkF0w-1" value="FIM" style="strokeWidth=2;html=1;shape=mxgraph.flowchart.terminator;whiteSpace=wrap;" vertex="1" parent="1">
          <mxGeometry x="375" y="1060" width="100" height="60" as="geometry" />
        </mxCell>
      </root>
    </mxGraphModel>
  </diagram>
</mxfile>
